HIERARCHY
ROOT hip
{
	OFFSET 0.000000 0.000000 0.000000
	CHANNELS 6 Xposition Yposition Zposition Xrotation Zrotation Yrotation 
	JOINT abdomen
	{
		OFFSET 0.000000 3.422050 0.000000
		CHANNELS 3 Xrotation Zrotation Yrotation 
		JOINT chest
		{
			OFFSET 0.000000 8.486693 -0.684411
			CHANNELS 3 Xrotation Zrotation Yrotation 
			JOINT neck
			{
				OFFSET 0.000000 10.266162 -0.273764
				CHANNELS 3 Xrotation Zrotation Yrotation 
				JOINT head
				{
					OFFSET 0.000000 3.148285 0.000000
					CHANNELS 3 Xrotation Zrotation Yrotation 
					End Site
					{
						OFFSET 0.000000 3.148289 0.000000
					}
				}
			}
			JOINT lCollar
			{
				OFFSET 3.422053 6.707223 -0.821293
				CHANNELS 3 Yrotation Zrotation Xrotation 
				JOINT lShldr
				{
					OFFSET 3.285171 0.000000 0.000000
					CHANNELS 3 Zrotation Yrotation Xrotation 
					JOINT lForeArm
					{
						OFFSET 10.129278 0.000000 0.000000
						CHANNELS 3 Yrotation Zrotation Xrotation 
						JOINT lHand
						{
							OFFSET 8.486692 0.000000 0.000000
							CHANNELS 3 Zrotation Yrotation Xrotation 
							End Site
							{
								OFFSET 4.106464 0.000000 0.000000
							}
						}
					}
				}
			}
			JOINT rCollar
			{
				OFFSET -3.558935 6.707223 -0.821293
				CHANNELS 3 Yrotation Zrotation Xrotation 
				JOINT rShldr
				{
					OFFSET -3.148289 0.000000 0.000000
					CHANNELS 3 Zrotation Yrotation Xrotation 
					JOINT rForeArm
					{
						OFFSET -10.266159 0.000000 0.000000
						CHANNELS 3 Yrotation Zrotation Xrotation 
						JOINT rHand
						{
							OFFSET -8.349810 0.000000 0.000000
							CHANNELS 3 Zrotation Yrotation Xrotation 
							End Site
							{
								OFFSET -4.106464 0.000000 0.000000
							}
						}
					}
				}
			}
		}
	}
	JOINT lThigh
	{
		OFFSET 5.338403 -1.642589 1.368821
		CHANNELS 3 Xrotation Zrotation Yrotation 
		JOINT lShin
		{
			OFFSET -2.053232 -20.121670 0.000000
			CHANNELS 3 Xrotation Zrotation Yrotation 
			JOINT lFoot
			{
				OFFSET 0.000000 -19.300380 -1.231939
				CHANNELS 3 Xrotation Yrotation Zrotation 
				End Site
				{
					OFFSET 0.000000 -2.463878 4.653993
				}
			}
		}
	}
	JOINT rThigh
	{
		OFFSET -5.338403 -1.642589 1.368821
		CHANNELS 3 Xrotation Zrotation Yrotation 
		JOINT rShin
		{
			OFFSET 2.053232 -20.121670 0.000000
			CHANNELS 3 Xrotation Zrotation Yrotation 
			JOINT rFoot
			{
				OFFSET 0.000000 -19.300380 -1.231939
				CHANNELS 3 Xrotation Yrotation Zrotation 
				End Site
				{
					OFFSET 0.000000 -2.463878 4.653993
				}
			}
		}
	}
}
MOTION
Frames: 17
Frame Time: 0.100000
0.000000 43.528500 0.000000 0.000000 0.000000 0.000000 0.000000 0.000000 0.000000 0.000000 0.000000 0.000000 0.000000 0.000000 0.000000 0.000000 0.000000 0.000000 0.000000 0.000000 0.000000 0.000000 0.000000 0.000000 0.000000 0.000000 0.000000 0.000000 0.000000 0.000000 0.000000 0.000000 0.000000 0.000000 0.000000 0.000000 0.000000 0.000000 0.000000 0.000000 0.000000 0.000000 0.000000 0.000000 0.000000 0.000000 0.000000 0.000000 0.000000 0.000000 0.000000 0.000000 0.000000 0.000000 0.000000 0.000000 0.000000 0.000000 0.000000 0.000000 
0.000000 -0.004688 0.000000 -90.001877 0.000000 0.000000 -0.002165 9.999076 0.998546 0.000000 0.000000 0.000000 27.997561 0.000000 0.000000 15.996989 0.000000 0.000000 0.000000 0.000000 0.000000 -24.001678 12.998551 19.996832 -31.002806 -0.000259 19.997944 -23.002533 0.000000 0.000000 0.000000 0.000000 -10.002190 -14.001397 41.997860 -60.001274 126.999115 -5.002185 -19.998112 -10.000309 14.999073 -0.000910 0.000000 14.998176 0.000000 0.000000 0.000000 0.711669 49.998291 -0.002817 4.997855 -41.003349 -12.002110 -0.002580 90.995331 0.000000 0.000000 26.996685 0.000000 0.000000 
0.000000 -0.004688 0.000000 -90.001884 0.000000 0.000000 -0.002165 9.999076 0.998546 0.000000 0.000000 0.000000 27.997562 0.000000 0.000000 15.996989 0.000000 0.000000 0.000000 0.000000 0.000000 -24.001678 12.998551 19.996832 -30.158447 0.382662 20.032015 -23.002533 0.000000 0.000000 0.000000 0.000000 -10.002190 -14.001400 41.997864 -60.001278 126.998833 -5.002234 -18.923300 -10.000309 14.999073 -0.000910 0.000000 14.998176 0.000000 0.000000 0.000000 1.425443 49.998291 -0.002817 4.997855 -41.071674 -12.690855 -0.906875 90.995331 0.000000 0.000000 26.996687 0.000000 0.000000 
0.000000 -0.004688 0.000000 -90.001862 0.000000 0.000000 -0.002165 9.999076 0.998546 0.000000 0.000000 0.000000 27.997559 0.000000 0.000000 15.996989 0.000000 0.000000 0.000000 0.000000 0.000000 -24.001678 12.998551 19.996832 -29.313646 0.766323 20.060453 -23.002533 0.000000 0.000000 0.000000 0.000000 -10.002190 -14.001398 41.997860 -60.001274 126.998528 -5.002289 -17.847446 -10.000308 14.999073 -0.000910 0.000000 14.998176 0.000000 0.000000 0.000000 2.139523 49.998283 -0.002817 4.997855 -41.129059 -13.381337 -1.813857 90.995331 0.000000 0.000000 26.996681 0.000000 0.000000 
0.000000 -0.004688 0.000000 -90.001877 0.000000 0.000000 -0.002165 9.999076 0.998546 0.000000 0.000000 0.000000 27.997561 0.000000 0.000000 15.996989 0.000000 0.000000 0.000000 0.000000 0.000000 -24.001678 12.998551 19.996832 -28.468439 1.150587 20.083252 -23.002533 0.000000 0.000000 0.000000 0.000000 -10.002190 -14.001397 41.997860 -60.001274 126.998245 -5.002348 -16.770739 -10.000309 14.999073 -0.000910 0.000000 14.998176 0.000000 0.000000 0.000000 2.853853 49.998287 -0.002817 4.997855 -41.175385 -14.073252 -2.723632 90.995331 0.000000 0.000000 26.996685 0.000000 0.000000 
0.000000 -0.004688 0.000000 -90.001884 0.000000 0.000000 -0.002165 9.999076 0.998546 0.000000 0.000000 0.000000 27.997562 0.000000 0.000000 15.996989 0.000000 0.000000 0.000000 0.000000 0.000000 -24.001678 12.998551 19.996832 -27.622860 1.535324 20.100382 -23.002533 0.000000 0.000000 0.000000 0.000000 -10.002190 -14.001396 41.997860 -60.001274 126.997955 -5.002415 -15.693365 -10.000310 14.999075 -0.000910 0.000000 14.998176 0.000000 0.000000 0.000000 3.568377 49.998295 -0.002817 4.997856 -41.210506 -14.766283 -3.636306 90.995331 0.000000 0.000000 26.996687 0.000000 0.000000 
0.000000 -0.004688 0.000000 -90.001877 0.000000 0.000000 -0.002165 9.999075 0.998546 0.000000 0.000000 0.000000 27.997559 0.000000 0.000000 15.996989 0.000000 0.000000 0.000000 0.000000 0.000000 -24.001677 12.998551 19.996830 -26.776957 1.920398 20.111843 -23.002531 0.000000 0.000000 0.000000 0.000000 -10.002188 -14.001397 41.997860 -60.001274 126.997681 -5.002486 -14.615514 -10.000309 14.999073 -0.000910 0.000000 14.998176 0.000000 0.000000 0.000000 4.283039 49.998287 -0.002817 4.997855 -41.234287 -15.460119 -4.551992 90.995331 0.000000 0.000000 26.996681 0.000000 0.000000 
0.000000 -0.004688 0.000000 -90.001877 0.000000 0.000000 -0.002165 9.999076 0.998546 0.000000 0.000000 0.000000 27.997561 0.000000 0.000000 15.996989 0.000000 0.000000 0.000000 0.000000 0.000000 -24.001678 12.998551 19.996832 -25.930744 2.305675 20.117611 -23.002533 0.000000 0.000000 0.000000 0.000000 -10.002189 -14.001398 41.997856 -60.001274 126.997383 -5.002562 -13.537374 -10.000309 14.999073 -0.000910 0.000000 14.998176 0.000000 0.000000 0.000000 4.997786 49.998291 -0.002817 4.997855 -41.246616 -16.154453 -5.470804 90.995331 0.000000 0.000000 26.996683 0.000000 0.000000 
0.000000 -0.004688 0.000000 -90.001877 0.000000 0.000000 -0.002165 9.999076 0.998546 0.000000 0.000000 0.000000 27.997561 0.000000 0.000000 15.996989 0.000000 0.000000 0.000000 0.000000 0.000000 -24.001678 12.998551 19.996832 -25.084269 2.691020 20.117685 -23.002533 0.000000 0.000000 0.000000 0.000000 -10.002190 -14.001397 41.997860 -60.001274 126.997108 -5.002645 -12.459141 -10.000309 14.999073 -0.000910 0.000000 14.998176 0.000000 0.000000 0.000000 5.712560 49.998291 -0.002817 4.997855 -41.247345 -16.848953 -6.392859 90.995331 0.000000 0.000000 26.996685 0.000000 0.000000 
0.000000 -0.004688 0.000000 -90.001877 0.000000 0.000000 -0.002165 9.999076 0.998546 0.000000 0.000000 0.000000 27.997561 0.000000 0.000000 15.996989 0.000000 0.000000 0.000000 0.000000 0.000000 -24.001678 12.998552 19.996834 -24.237558 3.076299 20.112055 -23.002533 0.000000 0.000000 0.000000 0.000000 -10.002190 -14.001401 41.997864 -60.001278 126.996826 -5.002732 -11.381001 -10.000309 14.999073 -0.000910 0.000000 14.998176 0.000000 0.000000 0.000000 6.427306 49.998291 -0.002817 4.997856 -41.236351 -17.543301 -7.318274 90.995331 0.000000 0.000000 26.996685 0.000000 0.000000 
0.000000 -0.004688 0.000000 -90.001884 0.000000 0.000000 -0.002165 9.999076 0.998546 0.000000 0.000000 0.000000 27.997561 0.000000 0.000000 15.996989 0.000000 0.000000 0.000000 0.000000 0.000000 -24.001680 12.998552 19.996832 -23.390661 3.461378 20.100727 -23.002533 0.000000 0.000000 0.000000 0.000000 -10.002190 -14.001398 41.997864 -60.001278 126.996536 -5.002824 -10.303148 -10.000309 14.999073 -0.000910 0.000000 14.998176 0.000000 0.000000 0.000000 7.141968 49.998291 -0.002817 4.997856 -41.213528 -18.237181 -8.247175 90.995331 0.000000 0.000000 26.996685 0.000000 0.000000 
0.000000 -0.004688 0.000000 -90.001877 0.000000 0.000000 -0.002165 9.999076 0.998546 0.000000 0.000000 0.000000 27.997561 0.000000 0.000000 15.996989 0.000000 0.000000 0.000000 0.000000 0.000000 -24.001678 12.998551 19.996832 -22.543600 3.846120 20.083696 -23.002533 0.000000 0.000000 0.000000 0.000000 -10.002190 -14.001398 41.997856 -60.001274 126.996277 -5.002923 -9.225773 -10.000309 14.999073 -0.000910 0.000000 14.998176 0.000000 0.000000 0.000000 7.856492 49.998291 -0.002817 4.997856 -41.178741 -18.930262 -9.179681 90.995331 0.000000 0.000000 26.996685 0.000000 0.000000 
0.000000 -0.004688 0.000000 -90.001877 0.000000 0.000000 -0.002165 9.999076 0.998546 0.000000 0.000000 0.000000 27.997561 0.000000 0.000000 15.996989 0.000000 0.000000 0.000000 0.000000 0.000000 -24.001678 12.998551 19.996832 -21.696409 4.230391 20.060966 -23.002533 0.000000 0.000000 0.000000 0.000000 -10.002190 -14.001399 41.997860 -60.001278 126.995987 -5.003024 -8.149062 -10.000309 14.999073 -0.000910 0.000000 14.998176 0.000000 0.000000 0.000000 8.570823 49.998291 -0.002817 4.997855 -41.131874 -19.622223 -10.115918 90.995331 0.000000 0.000000 26.996685 0.000000 0.000000 
0.000000 -0.004688 0.000000 -90.001877 0.000000 0.000000 -0.002165 9.999075 0.998546 0.000000 0.000000 0.000000 27.997559 0.000000 0.000000 15.996989 0.000000 0.000000 0.000000 0.000000 0.000000 -24.001677 12.998551 19.996830 -20.849129 4.614059 20.032545 -23.002531 0.000000 0.000000 0.000000 0.000000 -10.002190 -14.001396 41.997856 -60.001266 126.995720 -5.003131 -7.073208 -10.000309 14.999073 -0.000910 0.000000 14.998176 0.000000 0.000000 0.000000 9.284900 49.998291 -0.002817 4.997855 -41.072819 -20.312744 -11.056019 90.995331 0.000000 0.000000 26.996685 0.000000 0.000000 
0.000000 -0.004688 0.000000 -90.001862 0.000000 0.000000 -0.002165 9.999076 0.998546 0.000000 0.000000 0.000000 27.997559 0.000000 0.000000 15.996989 0.000000 0.000000 0.000000 0.000000 0.000000 -24.001678 12.998551 19.996832 -20.001806 4.996990 19.998453 -23.002533 0.000000 0.000000 0.000000 0.000000 -10.002190 -14.001396 41.997856 -60.001266 126.995445 -5.003245 -5.998400 -10.000309 14.999073 -0.000910 0.000000 14.998176 0.000000 0.000000 0.000000 9.998675 49.998287 -0.002817 4.997855 -41.001450 -21.001486 -12.000101 90.995331 0.000000 0.000000 26.996681 0.000000 0.000000 
0.000000 -0.004688 0.000000 -90.001877 0.000000 0.000000 -0.002165 9.999076 0.998546 0.000000 0.000000 0.000000 27.997561 0.000000 0.000000 15.996989 0.000000 0.000000 0.000000 0.000000 0.000000 -24.001678 12.998551 19.996832 -20.788612 4.641438 20.030304 -23.002533 0.000000 0.000000 0.000000 0.000000 -10.002190 -14.001397 41.997860 -60.001274 126.995705 -5.003140 -6.996401 -10.000309 14.999073 -0.000910 0.000000 14.998176 0.000000 0.000000 0.000000 9.335896 49.998291 -0.002817 4.997855 -41.068123 -20.361994 -11.123316 90.995331 0.000000 0.000000 26.996685 0.000000 0.000000 
0.000000 -0.004688 0.000000 -90.001877 0.000000 0.000000 -0.002165 9.999076 0.998546 0.000000 0.000000 0.000000 27.997561 0.000000 0.000000 15.996989 0.000000 0.000000 0.000000 0.000000 0.000000 -24.001678 12.998551 19.996832 -21.575377 4.285241 20.057259 -23.002533 0.000000 0.000000 0.000000 0.000000 -10.002190 -14.001397 41.997860 -60.001274 126.995949 -5.003040 -7.995314 -10.000309 14.999073 -0.000910 0.000000 14.998176 0.000000 0.000000 0.000000 8.672849 49.998291 -0.002817 4.997855 -41.124195 -19.720970 -10.249979 90.995331 0.000000 0.000000 26.996685 0.000000 0.000000 
